<svg width="44" height="41" viewBox="0 0 44 41" fill="none" xmlns="http://www.w3.org/2000/svg">
<path d="M0 21.8667C0 9.79004 9.79004 0 21.8667 0C33.9433 0 43.7333 9.79004 43.7333 21.8667V41H0V21.8667Z" fill="#5A1BEF"/>
<path fill-rule="evenodd" clip-rule="evenodd" d="M21.8661 32.8C29.414 32.8 35.5328 26.6812 35.5328 19.1333C35.5328 11.5854 29.414 5.46665 21.8661 5.46665C14.3182 5.46665 8.19946 11.5854 8.19946 19.1333C8.19946 26.6812 14.3182 32.8 21.8661 32.8Z" fill="white"/>
<rect x="19.1334" y="30.0667" width="5.46667" height="10.9333" fill="white"/>
<path opacity="0.3" fill-rule="evenodd" clip-rule="evenodd" d="M21.8669 24.5999C24.8861 24.5999 27.3336 22.1524 27.3336 19.1333C27.3336 16.1141 24.8861 13.6666 21.8669 13.6666C18.8478 13.6666 16.4003 16.1141 16.4003 19.1333C16.4003 22.1524 18.8478 24.5999 21.8669 24.5999Z" fill="#CEBBFA"/>
</svg>
