<svg width="26" height="26" viewBox="0 0 26 26" fill="none" xmlns="http://www.w3.org/2000/svg">
<mask id="mask0" mask-type="alpha" maskUnits="userSpaceOnUse" x="0" y="0" width="26" height="26">
<rect x="0.523926" width="25.3333" height="25.3333" fill="white"/>
</mask>
<g mask="url(#mask0)">
<path fill-rule="evenodd" clip-rule="evenodd" d="M25.8084 4.82222C24.8586 5.23886 23.8525 5.51324 22.8227 5.63651C23.906 4.98557 24.7172 3.96455 25.1063 2.76208C24.0826 3.35793 22.9673 3.78013 21.8057 4.01156C20.3488 2.45915 18.0917 1.95362 16.1118 2.73625C14.1318 3.51889 12.8304 5.43103 12.8287 7.56003C12.8287 7.95986 12.8736 8.35774 12.9627 8.74683C8.78656 8.54697 4.89278 6.57931 2.25472 3.3357C1.7891 4.12705 1.54618 5.0296 1.55172 5.94775C1.55013 7.68513 2.41704 9.30807 3.86178 10.2726C3.03693 10.2464 2.23032 10.0233 1.5092 9.62199L1.50919 9.68622C1.50772 12.159 3.24854 14.2901 5.6715 14.7819C4.9097 14.9875 4.11132 15.0184 3.33591 14.8723C4.02016 16.9883 5.97193 18.4368 8.19538 18.4787C6.35819 19.9205 4.08978 20.7031 1.75438 20.7008C1.34322 20.6999 0.932425 20.6761 0.523926 20.6293C2.90523 22.1525 5.67354 22.9604 8.50029 22.9573C18.0573 22.9573 23.2769 15.0451 23.2769 8.19427C23.2769 7.97351 23.2769 7.75094 23.2615 7.52927C24.2805 6.7964 25.1597 5.88656 25.8572 4.84304L25.8084 4.82222Z" fill="#B0B7C3"/>
</g>
</svg>
